<svg version="1.0" xmlns="http://www.w3.org/2000/svg"
 width="455.000000pt" height="455.000000pt" viewBox="0 0 455.000000 455.000000"
 preserveAspectRatio="xMidYMid meet">
<metadata>
Created by potrace 1.14, written by Peter Selinger 2001-2017
</metadata>
<g transform="translate(0.000000,455.000000) scale(0.100000,-0.100000)"
fill="#000000" stroke="none">
<path d="M845 3599 c-82 -10 -139 -49 -166 -114 -10 -23 -13 -260 -14 -1038 0
-554 2 -1012 5 -1017 4 -7 576 -9 1611 -8 l1604 3 1 1010 c1 1086 3 1046 -49
1103 -12 13 -39 33 -60 43 -36 19 -75 20 -1460 22 -782 1 -1445 -1 -1472 -4z
m2756 -297 c0 -10 1 -370 1 -800 1 -546 -2 -786 -9 -790 -6 -4 -602 -7 -1325
-7 l-1313 1 -3 806 -2 805 1325 1 c1230 0 1325 -1 1326 -16z"/>
<path d="M1892 3023 c-13 -45 -13 -165 -1 -248 16 -103 68 -238 115 -300 22
-30 22 -30 5 -80 -22 -61 -37 -90 -68 -132 -76 -99 -55 -237 45 -308 40 -27
51 -30 128 -31 50 0 89 -5 96 -12 15 -15 83 -15 111 0 12 6 56 12 97 12 69 1
79 4 121 34 85 61 113 163 70 253 -11 24 -39 78 -61 119 -22 41 -40 83 -40 92
0 9 14 38 32 64 42 62 87 182 104 274 23 131 13 300 -17 300 -42 0 -175 -137
-219 -226 -32 -65 -69 -188 -70 -229 0 -19 -6 -21 -69 -21 l-69 0 -7 51 c-3
27 -6 50 -6 50 6 0 -56 149 -73 179 -46 79 -168 196 -204 196 -5 0 -14 -17
-20 -37z m242 -760 c4 -9 1 -23 -7 -30 -7 -8 -21 -11 -30 -7 -17 6 -23 35 -10
47 12 13 41 7 47 -10z m319 5 c5 -16 -10 -48 -23 -48 -16 0 -39 31 -34 45 7
18 51 20 57 3z m-143 -114 c0 -3 -9 -15 -20 -27 l-20 -21 -27 26 -26 26 47 0
c25 0 46 -2 46 -4z m-137 -93 c30 -34 62 -32 79 5 14 30 24 30 32 0 9 -38 44
-40 79 -5 39 40 58 23 22 -19 -33 -39 -57 -47 -92 -29 -24 13 -30 13 -49 0
-19 -12 -27 -12 -57 1 -33 13 -57 41 -57 65 0 19 16 12 43 -18z"/>
<path d="M114 1232 c-19 -3 -21 -9 -19 -65 1 -34 5 -73 10 -87 13 -42 54 -89
98 -112 l42 -21 2030 0 2030 0 42 21 c45 23 90 75 99 113 10 44 11 140 1 146
-8 5 -1809 8 -1874 4 -8 -1 -13 -15 -13 -35 0 -18 -7 -39 -15 -46 -20 -17
-520 -16 -541 1 -8 6 -14 27 -14 45 0 20 -5 34 -12 35 -38 2 -1846 4 -1864 1z"/>
</g>
</svg>
